<svg xmlns="http://www.w3.org/2000/svg" width="31.341" height="28.942" viewBox="0 0 31.341 28.942">
  <g id="그룹_125" data-name="그룹 125" transform="translate(-4.923 -6.213)">
    <g id="그룹_126" data-name="그룹 126" transform="translate(4.923 6.213)">
      <g id="그룹_123" data-name="그룹 123">
        <path id="패스_89" data-name="패스 89" d="M20.593,6.213c-8.654,0-15.67,5.54-15.67,12.376,0,4.4,2.908,8.248,7.273,10.452l-1.478,5.513a.458.458,0,0,0,.111.47.449.449,0,0,0,.321.131.456.456,0,0,0,.272-.1l6.351-4.289a19.628,19.628,0,0,0,2.821.207c8.653,0,15.671-5.541,15.671-12.38S29.246,6.213,20.593,6.213" transform="translate(-4.923 -6.213)" fill="#2b1718"/>
        <path id="패스_90" data-name="패스 90" d="M10.283,16.2H8.578a1.124,1.124,0,0,1-.606-.162.668.668,0,0,1-.312-.457c-.009-.053-.02-.112-.026-.176a.69.69,0,0,1,.268-.579,1.065,1.065,0,0,1,.671-.21h5.215a1.108,1.108,0,0,1,.6.161.678.678,0,0,1,.316.458.9.9,0,0,1,.012.17.717.717,0,0,1-.261.59,1.049,1.049,0,0,1-.668.2H12.086l0,5.877a.944.944,0,0,1-.247.679.863.863,0,0,1-.66.257.92.92,0,0,1-.577-.184.855.855,0,0,1-.3-.512.949.949,0,0,1-.016-.24Z" transform="translate(-4.784 -5.782)" fill="#ffdf00"/>
        <path id="패스_91" data-name="패스 91" d="M14.912,15.048a.8.8,0,0,1,.328-.44,1.043,1.043,0,0,1,.553-.132h.433a1.137,1.137,0,0,1,.59.142.952.952,0,0,1,.373.546l2.178,6.314a3.631,3.631,0,0,1,.147.5c.017.093.028.165.033.217a.8.8,0,0,1-.255.583.819.819,0,0,1-.6.24.771.771,0,0,1-.811-.515l-.467-1.374h-2.9L14.042,22.5a.754.754,0,0,1-.807.515.835.835,0,0,1-.533-.165.75.75,0,0,1-.276-.466.841.841,0,0,1-.017-.192,1.03,1.03,0,0,1,.048-.331c.034-.129.077-.261.123-.388ZM16,16.512H15.98l-1.064,3.313h2.112Z" transform="translate(-4.539 -5.79)" fill="#ffdf00"/>
        <path id="패스_92" data-name="패스 92" d="M19.465,15.411a.946.946,0,0,1,.247-.679.865.865,0,0,1,.661-.258.893.893,0,0,1,.578.188.86.86,0,0,1,.3.51.909.909,0,0,1,.015.239v5.88h3.014a1.1,1.1,0,0,1,.611.16.691.691,0,0,1,.306.459,1.045,1.045,0,0,1,.025.172.694.694,0,0,1-.266.582,1.073,1.073,0,0,1-.672.207H20.522a1.18,1.18,0,0,1-.678-.173.817.817,0,0,1-.342-.557,2.433,2.433,0,0,1-.04-.368Z" transform="translate(-4.178 -5.79)" fill="#ffdf00"/>
        <path id="패스_93" data-name="패스 93" d="M25.115,15.411a.954.954,0,0,1,.245-.679.87.87,0,0,1,.661-.258.89.89,0,0,1,.577.188.836.836,0,0,1,.3.51.911.911,0,0,1,.018.239l.005,2.733,2.834-3.259a2.008,2.008,0,0,1,.344-.31.671.671,0,0,1,.375-.1.929.929,0,0,1,.54.167.673.673,0,0,1,.3.442l.014.069a.288.288,0,0,0,0,.076.7.7,0,0,1-.083.343,1.662,1.662,0,0,1-.214.3L29.183,17.9l2.193,3.474.066.105A1.833,1.833,0,0,1,31.7,22c0,.006.005.028.014.056a.254.254,0,0,0,0,.059.823.823,0,0,1-.271.693,1.043,1.043,0,0,1-.656.21.9.9,0,0,1-.45-.1,1.188,1.188,0,0,1-.354-.392L27.905,19.18l-.991,1.032.011,1.869a.954.954,0,0,1-.248.679.869.869,0,0,1-.661.257.923.923,0,0,1-.578-.184.852.852,0,0,1-.3-.512,1.12,1.12,0,0,1-.017-.24Z" transform="translate(-3.888 -5.79)" fill="#ffdf00"/>
      </g>
    </g>
  </g>
</svg>
