<svg xmlns="http://www.w3.org/2000/svg" xmlns:xlink="http://www.w3.org/1999/xlink" width="80" height="80" viewBox="0 0 80 80"><defs><clipPath id="a"><rect width="32.386" height="24.606" transform="translate(0 0)" fill="#9499b4"/></clipPath></defs><circle cx="40" cy="40" r="40" fill="#f1f2fb"/><g transform="translate(24 28)" clip-path="url(#a)"><path d="M5,10.465a1,1,0,0,0-1,1v.453a1,1,0,1,0,2,0v-.453a1,1,0,0,0-1-1" fill="#9499b4"/><path d="M5,14.877a1,1,0,0,0-1,1v.453a1,1,0,0,0,2,0v-.453a1,1,0,0,0-1-1" fill="#9499b4"/><path d="M31.386,6.144H24.378V1a1,1,0,0,0-1-1H9.008a1,1,0,0,0-1,1V6.144H1a1,1,0,0,0-1,1V23.606a1,1,0,0,0,1,1H31.386a1,1,0,0,0,1-1V7.144a1,1,0,0,0-1-1m-1,16.462H24.378V8.144h6.008Zm-15.35-5.268h2.313v5.268H15.036Zm3.314-2H14.036a1,1,0,0,0-1,1v6.268H10.008V2h12.37V22.606H19.35V16.338a1,1,0,0,0-1-1M2,8.144H8.008V22.606H2Z" fill="#9499b4"/><path d="M27.382,12.918a1,1,0,0,0,1-1v-.453a1,1,0,0,0-2,0v.453a1,1,0,0,0,1,1" fill="#9499b4"/><path d="M27.382,17.33a1,1,0,0,0,1-1v-.452a1,1,0,1,0-2,0v.452a1,1,0,0,0,1,1" fill="#9499b4"/><path d="M12.618,3.712a1,1,0,0,0-1,1v.453a1,1,0,0,0,2,0V4.712a1,1,0,0,0-1-1" fill="#9499b4"/><path d="M12.618,8.124a1,1,0,0,0-1,1v.453a1,1,0,0,0,2,0V9.124a1,1,0,0,0-1-1" fill="#9499b4"/><path d="M16.193,3.712a1,1,0,0,0-1,1v.453a1,1,0,0,0,2,0V4.712a1,1,0,0,0-1-1" fill="#9499b4"/><path d="M16.193,8.124a1,1,0,0,0-1,1v.453a1,1,0,0,0,2,0V9.124a1,1,0,0,0-1-1" fill="#9499b4"/><path d="M19.768,6.165a1,1,0,0,0,1-1V4.712a1,1,0,0,0-2,0v.453a1,1,0,0,0,1,1" fill="#9499b4"/><path d="M20.768,9.577V9.124a1,1,0,0,0-2,0v.453a1,1,0,0,0,2,0" fill="#9499b4"/></g></svg>