<svg xmlns="http://www.w3.org/2000/svg" xmlns:xlink="http://www.w3.org/1999/xlink" width="21.17" height="18.303" viewBox="0 0 21.17 18.303">
  <defs>
    <clipPath id="clip-path">
      <rect id="사각형_404" data-name="사각형 404" width="21.17" height="18.303" transform="translate(0 0)" fill="none"/>
    </clipPath>
  </defs>
  <g id="그룹_320" data-name="그룹 320" transform="translate(0 0)">
    <g id="그룹_319" data-name="그룹 319" transform="translate(0 0)" clip-path="url(#clip-path)">
      <path id="패스_279" data-name="패스 279" d="M17.826,0H3.343A3.35,3.35,0,0,0,0,3.355v7.96a3.349,3.349,0,0,0,3.343,3.355H8.027l2.007,3.266a.791.791,0,0,0,.55.366.575.575,0,0,0,.493-.284.391.391,0,0,0,.057-.083l2.007-3.265h4.684a3.35,3.35,0,0,0,3.344-3.355V3.355A3.35,3.35,0,0,0,17.826,0" transform="translate(0 0)" fill="#00c402"/>
      <path id="패스_280" data-name="패스 280" d="M8.352,13.351a1.722,1.722,0,0,0-1.1.51V11.806h-1.3v5.4h1.31v-.423a1.243,1.243,0,0,0,1.088.558,1.909,1.909,0,0,0,1.826-2.015s-.067-1.974-1.826-1.974M8.067,16.2a.833.833,0,1,1,.832-.833.833.833,0,0,1-.832.833" transform="translate(-3.65 -7.238)" fill="#fff"/>
      <path id="패스_281" data-name="패스 281" d="M17.947,11.824v1.249s.591-.027.591,1.074v3.2h1.249V13.852s.054-2.028-1.841-2.028" transform="translate(-11.003 -7.249)" fill="#fff"/>
      <path id="패스_282" data-name="패스 282" d="M27.207,15.841s-2.141,0-2.141,2a1.934,1.934,0,0,0,2.141,1.972s2.19,0,2.19-1.972a1.969,1.969,0,0,0-2.19-2m0,2.833a.833.833,0,1,1,.832-.833.833.833,0,0,1-.832.833" transform="translate(-15.367 -9.712)" fill="#fff"/>
      <path id="패스_283" data-name="패스 283" d="M40.874,15.973v.362a1.417,1.417,0,0,0-1.088-.493,1.788,1.788,0,0,0-1.834,1.986s-.02,1.923,1.783,1.923a1.484,1.484,0,0,0,1.138-.494v.3s.091.947-.826.947h-.312v1.148h.5a1.882,1.882,0,0,0,1.895-2.024V15.973Zm-.775,2.7a.833.833,0,1,1,.833-.833.832.832,0,0,1-.833.833" transform="translate(-23.268 -9.712)" fill="#fff"/>
    </g>
  </g>
</svg>
