<svg xmlns="http://www.w3.org/2000/svg" width="80" height="80" viewBox="0 0 80 80"><circle cx="40" cy="40" r="40" fill="#f1f2fb"/><g transform="translate(-1493.457 -1993.908)"><path d="M35.437,3.094H8.757A6.17,6.17,0,0,0,2.6,9.276V23.942a6.167,6.167,0,0,0,6.158,6.18h9.192l3.136,5.1a1.008,1.008,0,0,0,.1.148,1.052,1.052,0,0,0,1.821.007.676.676,0,0,0,.105-.155l3.133-5.1h9.192a6.172,6.172,0,0,0,6.162-6.18V9.276a6.176,6.176,0,0,0-6.162-6.182" transform="translate(1511.859 2016.906)" fill="#9499b4"/><path d="M10.526,12.468a3.176,3.176,0,0,0-2.034.944V9.625H6.108v9.944H8.519v-.778a2.29,2.29,0,0,0,2.007,1.03A3.522,3.522,0,0,0,13.888,16.1s-.125-3.633-3.362-3.633M10,17.715a1.532,1.532,0,1,1,1.534-1.532A1.532,1.532,0,0,1,10,17.715" transform="translate(1512.595 2018.276)" fill="#fff"/><path d="M13.175,9.436v2.306s1.085-.05,1.085,1.983v5.885h2.3v-6.43s.1-3.743-3.39-3.743" transform="translate(1514.078 2018.237)" fill="#fff"/><path d="M21.312,12s-3.946,0-3.946,3.681a3.569,3.569,0,0,0,3.946,3.637s4.036-.007,4.036-3.637c0,0,.132-3.681-4.036-3.681m0,5.213a1.532,1.532,0,1,1,1.533-1.532,1.531,1.531,0,0,1-1.533,1.532" transform="translate(1514.957 2018.775)" fill="#fff"/><path d="M30.341,12.237v.676a2.612,2.612,0,0,0-2-.91,3.289,3.289,0,0,0-3.378,3.656S24.923,19.2,28.244,19.2a2.745,2.745,0,0,0,2.1-.911v.557s.168,1.746-1.521,1.746h-.576v2.114h.929a3.466,3.466,0,0,0,3.489-3.727V12.237Zm-1.425,4.98a1.532,1.532,0,1,1,1.532-1.532,1.533,1.533,0,0,1-1.532,1.532" transform="translate(1516.55 2018.775)" fill="#fff"/></g></svg>