<svg xmlns="http://www.w3.org/2000/svg" xmlns:xlink="http://www.w3.org/1999/xlink" width="22" height="23.267" viewBox="0 0 22 23.267"><defs><clipPath id="a"><rect width="22" height="23.267" fill="none"/></clipPath></defs><g transform="translate(0 0)"><g transform="translate(0 0)" clip-path="url(#a)"><path d="M12.541,2.184c-5.787,0-10.477,4.338-10.477,9.69,0,3.953,1.656,5.84,3.923,7.56l.01,0v4.638a.266.266,0,0,0,.425.214L10.4,21.341l.086.037a11.358,11.358,0,0,0,2.059.188c5.786,0,10.477-4.339,10.477-9.691s-4.691-9.69-10.477-9.69" transform="translate(-1.541 -1.63)" fill="#060707"/><path d="M11,0C4.925,0,0,4.555,0,10.174c0,4.15,1.738,6.131,4.119,7.937l.011.005v4.87a.28.28,0,0,0,.447.224l4.171-3.1.09.039a11.9,11.9,0,0,0,2.162.2c6.075,0,11-4.556,11-10.175S17.075,0,11,0M7.313,12.753a2.3,2.3,0,0,0,2.278-1.642h1.595a3.816,3.816,0,0,1-3.873,3.176,4.045,4.045,0,0,1-4.145-4.124A4.045,4.045,0,0,1,7.313,6.039,3.82,3.82,0,0,1,11.2,9.275H9.607A2.269,2.269,0,0,0,7.313,7.551a2.49,2.49,0,0,0-2.589,2.611,2.553,2.553,0,0,0,2.589,2.59m10.509,1.376H16.36v-3.3a1.05,1.05,0,0,0-1.122-1.167c-.759,0-1.246.464-1.246,1.4v3.059H12.53V6.065h1.462V9.1a1.874,1.874,0,0,1,1.688-.792,2.006,2.006,0,0,1,1.529.623,2.351,2.351,0,0,1,.612,1.722Z" transform="translate(0 0)" fill="#ffd300"/></g></g></svg>