<svg xmlns="http://www.w3.org/2000/svg" width="80" height="80" viewBox="0 0 80 80"><circle cx="40" cy="40" r="40" fill="#f1f2fb"/><g transform="translate(25 25)"><path d="M27.047,5.638H13.98a8.919,8.919,0,0,0-8.92,8.918V27.617a8.916,8.916,0,0,0,8.92,8.916H27.047a8.914,8.914,0,0,0,8.92-8.916V14.556a8.917,8.917,0,0,0-8.92-8.918m6.074,22.21A5.924,5.924,0,0,1,27.2,33.769H13.826A5.926,5.926,0,0,1,7.9,27.848V14.481a5.923,5.923,0,0,1,5.922-5.92H27.2a5.922,5.922,0,0,1,5.922,5.92Z" transform="translate(-5.06 -5.638)" fill="#9499b4"/><path d="M19.833,12.463a8.016,8.016,0,1,0,8.022,8.018,8.017,8.017,0,0,0-8.022-8.018m0,13.213a5.2,5.2,0,1,1,5.2-5.2,5.2,5.2,0,0,1-5.2,5.2" transform="translate(-4.381 -4.954)" fill="#9499b4"/><path d="M26.8,10.487a1.868,1.868,0,1,0,1.868,1.867A1.869,1.869,0,0,0,26.8,10.487" transform="translate(-3.061 -5.152)" fill="#9499b4"/></g></svg>