<svg xmlns="http://www.w3.org/2000/svg" width="20.414" height="16.5" viewBox="0 0 20.414 16.5">
  <g id="그룹_343" data-name="그룹 343" transform="translate(0 0)">
    <rect id="사각형_241" data-name="사각형 241" width="1.595" height="8.871" transform="translate(9.41 7.109)" fill="#3fa576"/>
    <g id="그룹_193" data-name="그룹 193" transform="translate(0 0)">
      <g id="그룹_195" data-name="그룹 195" transform="translate(0 0)">
        <path id="패스_178" data-name="패스 178" d="M27.772,28.929H26.177a.52.52,0,0,1-.52-.52V19.539a.52.52,0,0,1,.52-.52h1.595a.52.52,0,0,1,.52.52v8.871a.52.52,0,0,1-.52.52M26.7,27.89h.555V20.058H26.7Z" transform="translate(-16.767 -12.429)" fill="#2d3e41"/>
        <path id="패스_179" data-name="패스 179" d="M11.184,8.433c-.873,1.512-6.6-.158-8.108-1.031A3.161,3.161,0,1,1,6.238,1.927c1.512.873,5.82,4.994,4.947,6.506" transform="translate(-0.978 -0.982)" fill="#3fa576"/>
        <path id="패스_180" data-name="패스 180" d="M8.43,8.585a11.352,11.352,0,0,1-2.137-.241A17.11,17.11,0,0,1,1.84,6.874,3.68,3.68,0,0,1,5.52.5c1.445.834,6.286,5.225,5.137,7.216-.334.579-1.081.869-2.227.869M3.684,1.046A2.641,2.641,0,0,0,2.359,5.975a16.3,16.3,0,0,0,4.133,1.35c2.264.442,3.117.128,3.265-.128C10.3,6.262,6.81,2.445,5,1.4a2.625,2.625,0,0,0-1.316-.353m6.523,6.409h0Z" transform="translate(0 -0.005)" fill="#2d3e41"/>
        <path id="패스_181" data-name="패스 181" d="M29.24,8.433c.873,1.512,6.6-.158,8.108-1.031a3.161,3.161,0,0,0-3.161-5.475c-1.512.873-5.82,4.994-4.947,6.506" transform="translate(-19.033 -0.982)" fill="#3fa576"/>
        <path id="패스_182" data-name="패스 182" d="M30.04,8.58c-1.147,0-1.893-.29-2.227-.87-.51-.883.041-2.261,1.638-4.094A17.117,17.117,0,0,1,32.95.495a3.68,3.68,0,1,1,3.68,6.375,17.138,17.138,0,0,1-4.453,1.47,11.41,11.41,0,0,1-2.137.241m4.746-7.54a2.629,2.629,0,0,0-1.316.355c-1.81,1.045-5.3,4.862-4.757,5.8.148.256,1,.571,3.265.129a16.312,16.312,0,0,0,4.133-1.35,2.643,2.643,0,0,0-1.325-4.93" transform="translate(-18.056 0)" fill="#2d3e41"/>
        <path id="패스_183" data-name="패스 183" d="M38.507,3.7a3.145,3.145,0,0,0-1.341-1.255,3.158,3.158,0,0,1-1.247,4.141,16.129,16.129,0,0,1-6.744,1.625,1.136,1.136,0,0,0,.068.837c.873,1.512,6.6-.159,8.108-1.032A3.161,3.161,0,0,0,38.507,3.7" transform="translate(-19.035 -1.597)" fill="#2e8b59"/>
        <path id="패스_184" data-name="패스 184" d="M35.56,3.3a3.159,3.159,0,0,1,3.621.327,3.16,3.16,0,0,0-3.994-.7c-1.512.873-5.82,4.994-4.947,6.506a.93.93,0,0,0,.357.339C29.8,8.237,34.059,4.168,35.56,3.3" transform="translate(-19.687 -1.637)" fill="#fff"/>
        <path id="패스_185" data-name="패스 185" d="M30.04,8.58c-1.147,0-1.893-.29-2.227-.87-.51-.883.041-2.261,1.638-4.094A17.117,17.117,0,0,1,32.95.495a3.68,3.68,0,1,1,3.68,6.375,17.138,17.138,0,0,1-4.453,1.47,11.41,11.41,0,0,1-2.137.241m4.746-7.54a2.629,2.629,0,0,0-1.316.355c-1.81,1.045-5.3,4.862-4.757,5.8.148.256,1,.571,3.265.129a16.312,16.312,0,0,0,4.133-1.35,2.643,2.643,0,0,0-1.325-4.93" transform="translate(-18.056 0)" fill="#2d3e41"/>
        <path id="패스_186" data-name="패스 186" d="M8.633,6.66c1.269,1.4,2.274,2.946,1.809,3.751C9.6,11.875,4.2,10.355,2.49,9.465a3.145,3.145,0,0,0,1.237,1.307c1.512.873,7.235,2.543,8.108,1.031.629-1.09-1.434-3.536-3.2-5.143" transform="translate(-1.627 -4.352)" fill="#2e8b59"/>
        <path id="패스_187" data-name="패스 187" d="M2.615,6.869A3.159,3.159,0,0,1,7.013,2.7,11.684,11.684,0,0,1,8.758,4.064c-.124-.137-.251-.271-.378-.4A13.268,13.268,0,0,0,6.238,1.927,3.161,3.161,0,0,0,2.129,6.561a3.167,3.167,0,0,0,.331.223c.047.027.1.056.156.085" transform="translate(-0.978 -0.982)" fill="#fff"/>
        <path id="패스_188" data-name="패스 188" d="M8.43,8.585a11.352,11.352,0,0,1-2.137-.241A17.11,17.11,0,0,1,1.84,6.874,3.68,3.68,0,0,1,5.52.5c1.445.834,6.286,5.225,5.137,7.216-.334.579-1.081.869-2.227.869M3.684,1.046A2.641,2.641,0,0,0,2.359,5.975a16.3,16.3,0,0,0,4.133,1.35c2.264.442,3.117.128,3.265-.128C10.3,6.262,6.81,2.445,5,1.4a2.625,2.625,0,0,0-1.316-.353m6.523,6.409h0Z" transform="translate(0 -0.005)" fill="#2d3e41"/>
      </g>
    </g>
  </g>
</svg>
