<svg id="그룹_311" data-name="그룹 311" xmlns="http://www.w3.org/2000/svg" xmlns:xlink="http://www.w3.org/1999/xlink" width="45" height="45" viewBox="0 0 45 45">
  <defs>
    <clipPath id="clip-path">
      <rect id="사각형_397" data-name="사각형 397" width="45" height="45" fill="none"/>
    </clipPath>
  </defs>
  <g id="그룹_310" data-name="그룹 310" clip-path="url(#clip-path)">
    <path id="패스_267" data-name="패스 267" d="M45,22.5A22.5,22.5,0,1,1,22.5,0,22.5,22.5,0,0,1,45,22.5" fill="#00c402"/>
    <path id="패스_268" data-name="패스 268" d="M40.892,30.039a4.87,4.87,0,0,1-4.861,4.878H14.977a4.868,4.868,0,0,1-4.861-4.878V18.467a4.869,4.869,0,0,1,4.861-4.878H36.03a4.871,4.871,0,0,1,4.861,4.878Z" transform="translate(-3.003 -4.034)" fill="#fff"/>
    <path id="패스_269" data-name="패스 269" d="M34.188,42.619l-3.128-.2v-.082l-.655.041-.664-.041v.083l-3.129.2L29.6,47.482a.907.907,0,0,0,.08.115.829.829,0,0,0,1.436,0,.525.525,0,0,0,.084-.12Z" transform="translate(-7.901 -12.57)" fill="#fff"/>
    <path id="패스_270" data-name="패스 270" d="M18.365,24.7a2.5,2.5,0,0,0-1.6.742V22.455H14.878v7.85h1.9v-.616a1.807,1.807,0,0,0,1.583.811,2.775,2.775,0,0,0,2.654-2.929s-.1-2.87-2.654-2.87m-.415,4.143a1.211,1.211,0,1,1,1.21-1.211,1.213,1.213,0,0,1-1.21,1.211" transform="translate(-4.417 -6.666)" fill="#f37528"/>
    <path id="패스_271" data-name="패스 271" d="M24.473,22.2v1.816s.86-.039.86,1.563v4.647h1.816V25.155s.078-2.95-2.676-2.95" transform="translate(-7.265 -6.592)" fill="#f37528"/>
    <path id="패스_272" data-name="패스 272" d="M33.28,25.684s-3.113,0-3.113,2.907a2.813,2.813,0,0,0,3.113,2.868s3.184,0,3.184-2.868a2.862,2.862,0,0,0-3.184-2.907m0,4.119a1.211,1.211,0,1,1,1.209-1.211A1.212,1.212,0,0,1,33.282,29.8" transform="translate(-8.956 -7.625)" fill="#f37528"/>
    <path id="패스_273" data-name="패스 273" d="M44.725,25.874V26.4a2.061,2.061,0,0,0-1.581-.718,2.6,2.6,0,0,0-2.666,2.888s-.029,2.795,2.592,2.795a2.154,2.154,0,0,0,1.654-.719v.441s.131,1.377-1.2,1.377H43.07v1.668H43.8a2.735,2.735,0,0,0,2.754-2.943V25.874ZM43.6,29.8a1.211,1.211,0,1,1,1.212-1.211A1.21,1.21,0,0,1,43.6,29.8" transform="translate(-12.017 -7.625)" fill="#f37528"/>
  </g>
</svg>
