<svg id="그룹_309" data-name="그룹 309" xmlns="http://www.w3.org/2000/svg" xmlns:xlink="http://www.w3.org/1999/xlink" width="45" height="45" viewBox="0 0 45 45">
  <defs>
    <clipPath id="clip-path">
      <rect id="사각형_396" data-name="사각형 396" width="45" height="45" fill="none"/>
    </clipPath>
  </defs>
  <g id="그룹_308" data-name="그룹 308" clip-path="url(#clip-path)">
    <path id="패스_265" data-name="패스 265" d="M45,22.5A22.5,22.5,0,1,1,22.5,0,22.5,22.5,0,0,1,45,22.5" fill="#f9db00"/>
    <path id="패스_266" data-name="패스 266" d="M34.683,13.23h-11.3A1.369,1.369,0,0,0,22.014,14.6V25.8a1.369,1.369,0,0,0,1.374,1.365h5.207a8.442,8.442,0,0,1-1.4,4.069A16.334,16.334,0,0,1,24.339,34.3a.754.754,0,0,0-.265.55.776.776,0,0,0,.193.461L27.9,39.379a.9.9,0,0,0,.321.219.578.578,0,0,0,.48-.055,18.251,18.251,0,0,0,7.355-14.181c0-.02,0-10.767,0-10.767a1.369,1.369,0,0,0-1.373-1.366" transform="translate(-6.535 -3.928)" fill="#fff"/>
  </g>
</svg>
