<svg id="그룹_307" data-name="그룹 307" xmlns="http://www.w3.org/2000/svg" xmlns:xlink="http://www.w3.org/1999/xlink" width="45" height="45" viewBox="0 0 45 45">
  <defs>
    <clipPath id="clip-path">
      <rect id="사각형_395" data-name="사각형 395" width="45" height="45" fill="none"/>
    </clipPath>
  </defs>
  <g id="그룹_306" data-name="그룹 306" clip-path="url(#clip-path)">
    <path id="패스_263" data-name="패스 263" d="M45,22.5A22.5,22.5,0,1,1,22.5,0,22.5,22.5,0,0,1,45,22.5" fill="#2cb1f4"/>
    <path id="패스_264" data-name="패스 264" d="M21.785,38.048A14.937,14.937,0,0,0,36.823,23.009c0-.228,0-.456-.017-.683a10.71,10.71,0,0,0,2.637-2.737,10.607,10.607,0,0,1-3.034.832A5.321,5.321,0,0,0,38.733,17.5a10.639,10.639,0,0,1-3.356,1.285A5.285,5.285,0,0,0,26.235,22.4,5.394,5.394,0,0,0,26.37,23.6,15.016,15.016,0,0,1,15.476,18.08a5.287,5.287,0,0,0,1.637,7.054,5.256,5.256,0,0,1-2.395-.662c0,.023,0,.045,0,.068a5.288,5.288,0,0,0,4.239,5.181,5.288,5.288,0,0,1-1.391.186,5.189,5.189,0,0,1-.993-.1,5.288,5.288,0,0,0,4.936,3.672,10.669,10.669,0,0,1-7.824,2.19,14.945,14.945,0,0,0,8.1,2.376" transform="translate(-4.062 -5.08)" fill="#fff"/>
  </g>
</svg>
