<svg xmlns="http://www.w3.org/2000/svg" xmlns:xlink="http://www.w3.org/1999/xlink" width="22" height="22" viewBox="0 0 22 22"><defs><clipPath id="a"><rect width="9.675" height="9.22" fill="#fff"/></clipPath></defs><g transform="translate(-104 -215)"><rect width="22" height="22" rx="6" transform="translate(104 215)" fill="#40a436"/><g transform="translate(110.834 221.747)"><g clip-path="url(#a)"><path d="M4.085,0H6.369a.119.119,0,0,1,.12.122A2.3,2.3,0,0,1,4.557,2.339l-.018,0H2.126a.12.12,0,0,1-.119-.13A2.489,2.489,0,0,1,4.085,0M8.25,6.132H7.3A3.475,3.475,0,0,1,3.682,9.22C.074,9.22,0,5.585,0,5.585V3.4a.119.119,0,0,1,.12-.12H8.25a1.425,1.425,0,1,1,0,2.85M8.217,4.007a.692.692,0,1,0,.692.692.692.692,0,0,0-.692-.692" transform="translate(0)" fill="#fff"/></g></g></g></svg>