<svg xmlns="http://www.w3.org/2000/svg" width="22" height="22" viewBox="0 0 22 22"><g transform="translate(-104 -99)"><rect width="22" height="22" rx="6" transform="translate(104 99)" fill="#904aac"/><g transform="translate(110.056 105.095)"><path d="M8.619,5.929a1.889,1.889,0,0,1-.236-.015A1.961,1.961,0,0,1,6.677,3.735L7.007.445A.494.494,0,0,1,7.5,0H9.806A.494.494,0,0,1,10.3.445l.326,3.3a1.991,1.991,0,0,1,.013.259A1.963,1.963,0,0,1,8.677,5.929H8.619M7.945.988,7.659,3.843a.974.974,0,0,0,.846,1.09.619.619,0,0,0,.134.007h.02a.96.96,0,0,0,.99-.952,1.086,1.086,0,0,0-.007-.137L9.358.988Z" transform="translate(-3.37)" fill="#fff"/><path d="M14.494,5.929H14.45a2.189,2.189,0,0,1-2.116-1.911L11.987.543A.494.494,0,0,1,12.478,0h1.507a2.18,2.18,0,0,1,2.456,2.2l.14,1.377a2.067,2.067,0,0,1,.014.287,2.106,2.106,0,0,1-2.1,2.061m-.024-.989a1.1,1.1,0,0,0,1.137-1.092,1.119,1.119,0,0,0-.007-.157l-.14-1.369C15.314,1.266,15.01.988,13.986.988h-.961l.292,2.92A1.193,1.193,0,0,0,14.47,4.941" transform="translate(-6.063)" fill="#fff"/><path d="M2.105,5.929a2.217,2.217,0,0,1-.256-.015A2.107,2.107,0,0,1,.015,3.572L.148,2.224A2.187,2.187,0,0,1,2.606,0H4.113A.494.494,0,0,1,4.6.543L4.258,4.006A2.181,2.181,0,0,1,2.146,5.929H2.105m.031-.495h0ZM2.606.988c-1.025,0-1.328.278-1.477,1.352L1,3.679a1.12,1.12,0,0,0,.971,1.253,1.2,1.2,0,0,0,.159.008A1.186,1.186,0,0,0,3.276,3.9L3.567.988Z" transform="translate(0)" fill="#fff"/><path d="M6.959,15.534H4.3c-2.491,0-3.6-1.111-3.6-3.6V9.714a.494.494,0,0,1,.988,0v2.218c0,1.954.66,2.614,2.614,2.614H6.959c1.954,0,2.614-.66,2.614-2.614V9.714a.494.494,0,0,1,.988,0v2.218c0,2.491-1.111,3.6-3.6,3.6" transform="translate(-0.351 -4.665)" fill="#fff"/></g></g></svg>