<svg xmlns="http://www.w3.org/2000/svg" width="22" height="22" viewBox="0 0 22 22"><g transform="translate(-104 -180)"><rect width="22" height="22" rx="6" transform="translate(104 180)" fill="red"/><g transform="translate(109.744 186.74)"><path d="M17.56,11.433c-.408-.061-2.373-.138-3.934-.138s-3.526.077-3.934.138a1.426,1.426,0,0,0-1.3,1.257,20.7,20.7,0,0,0-.165,2.371v.128a20.737,20.737,0,0,0,.165,2.372,1.425,1.425,0,0,0,1.3,1.255c.408.061,2.376.137,3.938.137h-.007c1.562,0,3.528-.077,3.937-.138a1.427,1.427,0,0,0,1.3-1.255,20.877,20.877,0,0,0,.164-2.372v-.128a20.841,20.841,0,0,0-.164-2.371,1.427,1.427,0,0,0-1.3-1.257" transform="translate(-8.226 -11.295)" fill="#fff"/><path d="M16.626,16.3l2.85,1.488-2.85,1.559Z" transform="translate(-12.451 -13.938)" fill="red"/></g></g></svg>