<svg xmlns="http://www.w3.org/2000/svg" width="22" height="22" viewBox="0 0 22 22"><g transform="translate(-104 -107)"><rect width="22" height="22" rx="6" transform="translate(104 107)" fill="#40a436"/><g transform="translate(109.954 113.804)"><path d="M11.608,3.094H4.289A1.693,1.693,0,0,0,2.6,4.79V8.814a1.692,1.692,0,0,0,1.69,1.7H6.81l.86,1.4a.277.277,0,0,0,.028.04.289.289,0,0,0,.5,0,.186.186,0,0,0,.029-.042l.86-1.4h2.522a1.693,1.693,0,0,0,1.69-1.7V4.79a1.694,1.694,0,0,0-1.69-1.7" transform="translate(-2.599 -3.094)" fill="#fff"/><path d="M7.32,10.405a.871.871,0,0,0-.558.259V9.625H6.108v2.728H6.77V12.14a.628.628,0,0,0,.551.282.966.966,0,0,0,.922-1.02s-.034-1-.922-1m-.145,1.44a.42.42,0,1,1,.421-.42.42.42,0,0,1-.421.42" transform="translate(-4.943 -7.457)" fill="#ef5d19"/><path d="M13.175,9.436v.633s.3-.014.3.544v1.614h.632V10.463s.027-1.027-.93-1.027" transform="translate(-9.665 -7.331)" fill="#ef5d19"/><path d="M18.448,12s-1.083,0-1.083,1.01a.979.979,0,0,0,1.083,1s1.107,0,1.107-1A.994.994,0,0,0,18.448,12m0,1.43a.42.42,0,1,1,.421-.42.42.42,0,0,1-.421.42" transform="translate(-12.464 -9.046)" fill="#ef5d19"/><path d="M26.435,12.067v.186a.717.717,0,0,0-.55-.25.9.9,0,0,0-.927,1s-.01.972.9.972a.753.753,0,0,0,.575-.25v.153s.046.479-.417.479H25.86v.58h.255a.951.951,0,0,0,.957-1.023v-1.85Zm-.391,1.366a.42.42,0,1,1,.42-.42.421.421,0,0,1-.42.42" transform="translate(-17.536 -9.045)" fill="#ef5d19"/></g></g></svg>