<svg xmlns="http://www.w3.org/2000/svg" width="24.5" height="17.372" viewBox="0 0 24.5 17.372">
  <g id="그룹_32" data-name="그룹 32" transform="translate(-39.8 -14.129)">
    <g id="그룹_22" data-name="그룹 22" transform="translate(39.8 14.129)">
      <path id="패스_22" data-name="패스 22" d="M29.4,11.608c-.926-.137-5.382-.313-8.922-.313s-8,.175-8.922.313A3.234,3.234,0,0,0,8.6,14.458a46.953,46.953,0,0,0-.374,5.377v.29a47.034,47.034,0,0,0,.374,5.38,3.231,3.231,0,0,0,2.954,2.847c.926.139,5.39.312,8.931.312l-.017,0c3.544,0,8-.175,8.93-.314a3.237,3.237,0,0,0,2.957-2.847,47.352,47.352,0,0,0,.371-5.38v-.29a47.27,47.27,0,0,0-.371-5.377A3.236,3.236,0,0,0,29.4,11.608" transform="translate(-8.226 -11.295)" fill="red"/>
      <path id="패스_23" data-name="패스 23" d="M16.626,16.3l6.465,3.376L16.626,23.21Z" transform="translate(-7.158 -10.947)" fill="#fff"/>
    </g>
  </g>
</svg>
