<?xml version="1.0" encoding="UTF-8"?>
<!DOCTYPE svg PUBLIC "-//W3C//DTD SVG 1.1//EN" "http://www.w3.org/Graphics/SVG/1.1/DTD/svg11.dtd">
<svg xmlns="http://www.w3.org/2000/svg" version="1.1" width="417px" height="351px" style="shape-rendering:geometricPrecision; text-rendering:geometricPrecision; image-rendering:optimizeQuality; fill-rule:evenodd; clip-rule:evenodd" xmlns:xlink="http://www.w3.org/1999/xlink">
<g><path style="opacity:1" fill="#4dac27" d="M 6.5,1.5 C 118.834,1.33333 231.167,1.5 343.5,2C 344.931,2.46524 346.097,3.29857 347,4.5C 348.162,48.2509 348.662,92.0842 348.5,136C 348.289,206.501 347.956,277.001 347.5,347.5C 233.835,348.547 120.169,348.713 6.5,348C 5.06919,347.535 3.90252,346.701 3,345.5C 1.33753,232.581 1.0042,119.581 2,6.5C 3.02496,4.31305 4.52496,2.64638 6.5,1.5 Z"/></g>
<g><path style="opacity:1" fill="#fbf2ee" d="M 258.5,128.5 C 259.585,130.587 261.251,131.92 263.5,132.5C 264.167,132.5 264.5,132.833 264.5,133.5C 264.738,135.404 265.738,136.738 267.5,137.5C 268.222,137.918 268.722,138.584 269,139.5C 269.667,142.167 269.667,144.833 269,147.5C 266.079,150.816 263.245,154.149 260.5,157.5C 250.22,166.112 240.553,175.445 231.5,185.5C 223.833,193.833 215.833,201.833 207.5,209.5C 197.778,218.22 188.778,227.553 180.5,237.5C 177.408,241.598 173.741,244.932 169.5,247.5C 167.847,247.66 166.514,248.326 165.5,249.5C 159.313,249.409 154.646,246.742 151.5,241.5C 149.234,237.564 146.234,234.231 142.5,231.5C 130.887,220.554 119.554,209.221 108.5,197.5C 106.1,194.097 103.1,191.43 99.5,189.5C 94.1687,185.146 91.5021,179.479 91.5,172.5C 92.9063,172.027 93.573,171.027 93.5,169.5C 96.6293,165.869 99.9626,162.369 103.5,159C 105.695,157.627 108.029,157.294 110.5,158C 112.996,159.08 115.33,160.414 117.5,162C 128.035,172.368 138.369,182.868 148.5,193.5C 150.167,197.167 152.833,199.833 156.5,201.5C 158.166,203.828 160.499,204.828 163.5,204.5C 166.8,204.347 169.8,203.347 172.5,201.5C 174.404,201.262 175.738,200.262 176.5,198.5C 176.5,197.833 176.833,197.5 177.5,197.5C 179.914,196.089 181.581,194.089 182.5,191.5C 203.298,170.201 224.298,149.035 245.5,128C 250.051,125.865 254.385,126.032 258.5,128.5 Z"/></g>
<g><path style="opacity:1" fill="#a1c77f" d="M 258.5,128.5 C 260.749,129.08 262.415,130.413 263.5,132.5C 261.251,131.92 259.585,130.587 258.5,128.5 Z"/></g>
<g><path style="opacity:1" fill="#a8cc89" d="M 264.5,133.5 C 266.262,134.262 267.262,135.596 267.5,137.5C 265.738,136.738 264.738,135.404 264.5,133.5 Z"/></g>
<g><path style="opacity:1" fill="#a8cd8b" d="M 93.5,169.5 C 93.573,171.027 92.9063,172.027 91.5,172.5C 91.427,170.973 92.0937,169.973 93.5,169.5 Z"/></g>
<g><path style="opacity:1" fill="#96c070" d="M 260.5,157.5 C 251.447,167.555 241.78,176.888 231.5,185.5C 240.553,175.445 250.22,166.112 260.5,157.5 Z"/></g>
<g><path style="opacity:1" fill="#a2c880" d="M 99.5,189.5 C 103.1,191.43 106.1,194.097 108.5,197.5C 104.9,195.57 101.9,192.903 99.5,189.5 Z"/></g>
<g><path style="opacity:1" fill="#a2c880" d="M 148.5,193.5 C 151.5,195.833 154.167,198.5 156.5,201.5C 152.833,199.833 150.167,197.167 148.5,193.5 Z"/></g>
<g><path style="opacity:1" fill="#aace8d" d="M 182.5,191.5 C 181.581,194.089 179.914,196.089 177.5,197.5C 178.419,194.911 180.086,192.911 182.5,191.5 Z"/></g>
<g><path style="opacity:1" fill="#aace8d" d="M 176.5,198.5 C 175.738,200.262 174.404,201.262 172.5,201.5C 173.262,199.738 174.596,198.738 176.5,198.5 Z"/></g>
<g><path style="opacity:1" fill="#97c070" d="M 207.5,209.5 C 199.222,219.447 190.222,228.78 180.5,237.5C 188.778,227.553 197.778,218.22 207.5,209.5 Z"/></g>
<g><path style="opacity:1" fill="#a0c77e" d="M 142.5,231.5 C 146.234,234.231 149.234,237.564 151.5,241.5C 147.766,238.769 144.766,235.436 142.5,231.5 Z"/></g>
<g><path style="opacity:1" fill="#a9cd8a" d="M 169.5,247.5 C 168.713,249.104 167.38,249.771 165.5,249.5C 166.514,248.326 167.847,247.66 169.5,247.5 Z"/></g>
</svg>
