<svg version="1.1" id="Layer_1" xmlns="http://www.w3.org/2000/svg" xmlns:xlink="http://www.w3.org/1999/xlink" x="0px" y="0px"
	 width="100%" viewBox="0 0 83 83" enable-background="new 0 0 83 83" xml:space="preserve">
<path fill="#EB5D3F" opacity="1.000000" stroke="none" 
	d="
M83.750000,83.750000 
	C57.000000,84.000000 30.499842,83.960022 4.000259,84.065208 
	C1.499515,84.075127 0.924321,83.500557 0.934700,80.999725 
	C1.041228,55.333504 1.041228,29.666494 0.934701,4.000271 
	C0.924321,1.499441 1.499441,0.924321 4.000271,0.934701 
	C29.666494,1.041228 55.333504,1.041228 80.999725,0.934700 
	C83.500557,0.924321 84.075127,1.499515 84.065208,4.000259 
	C83.960022,30.499842 84.000000,57.000000 83.750000,83.750000 
z"/>
<path fill="#FEF4F1" opacity="1.000000" stroke="none" 
	d="
M24.465300,39.686035 
	C26.258404,37.380112 27.575584,38.096062 29.073385,39.699574 
	C31.569393,42.371738 34.367725,44.770210 36.769466,47.519203 
	C39.023376,50.098991 40.706448,50.247700 43.155220,47.621025 
	C48.028702,42.393509 53.322857,37.559105 58.220734,32.352982 
	C60.327869,30.113237 61.576191,30.144140 63.795414,32.295132 
	C66.176323,34.602833 65.599091,35.868851 63.545456,37.862381 
	C56.505756,44.696049 49.558842,51.629997 42.740826,58.684475 
	C40.697327,60.798843 39.388939,61.234516 37.188091,58.842678 
	C33.025120,54.318428 28.658768,49.962078 24.141987,45.790325 
	C21.690548,43.526138 21.521976,41.819450 24.465300,39.686035 
z"/>
</svg>