<svg xmlns="http://www.w3.org/2000/svg" xmlns:xlink="http://www.w3.org/1999/xlink" width="15.569" height="18" viewBox="0 0 15.569 18"><defs><clipPath id="a"><rect width="15.569" height="18" fill="none"/></clipPath></defs><g clip-path="url(#a)"><path d="M3.832,20.364a.818.818,0,0,1-.818-.818V13.818a.818.818,0,0,1,1.636,0v5.727a.818.818,0,0,1-.818.818" transform="translate(-0.548 -2.364)" fill="#111"/><path d="M3.832,4.091a.818.818,0,0,1-.818-.818V.818a.818.818,0,1,1,1.636,0V3.273a.818.818,0,0,1-.818.818" transform="translate(-0.548 0)" fill="#111"/><path d="M14.832,21.091a.818.818,0,0,1-.818-.818V17.818a.818.818,0,1,1,1.636,0v2.455a.818.818,0,0,1-.818.818" transform="translate(-2.548 -3.091)" fill="#111"/><path d="M14.832,7.364a.818.818,0,0,1-.818-.818V.818a.818.818,0,0,1,1.636,0V6.545a.818.818,0,0,1-.818.818" transform="translate(-2.548 0)" fill="#111"/><path d="M2.281,12.827a2.283,2.283,0,0,1-2.27-2.512V5.5A2.285,2.285,0,0,1,2,3,2.368,2.368,0,0,1,2.513,3H4.056A2.283,2.283,0,0,1,6.55,4.982a2.224,2.224,0,0,1,.007.516v4.817a2.283,2.283,0,0,1-2.5,2.5H2.512a2.189,2.189,0,0,1-.231.011m0-8.2a.669.669,0,0,0-.08,0,.646.646,0,0,0-.561.722.708.708,0,0,1,.007.1v4.909a.875.875,0,0,1-.007.1.647.647,0,0,0,.722.721.848.848,0,0,1,.1-.007H4.1a.875.875,0,0,1,.1.007.579.579,0,0,0,.16,0,.644.644,0,0,0,.561-.722.872.872,0,0,1-.007-.1V5.452a.886.886,0,0,1,.007-.1.647.647,0,0,0-.245-.59.63.63,0,0,0-.477-.131.727.727,0,0,1-.1.007H2.466a.886.886,0,0,1-.1-.007.636.636,0,0,0-.079,0" transform="translate(0 -0.543)" fill="#111"/><path d="M13.281,16.827a2.283,2.283,0,0,1-2.27-2.512V9.5A2.285,2.285,0,0,1,13,7,2.368,2.368,0,0,1,13.513,7h1.544A2.287,2.287,0,0,1,17.55,8.982a2.224,2.224,0,0,1,.007.516v4.817a2.285,2.285,0,0,1-1.985,2.494,2.223,2.223,0,0,1-.516.007H13.512a2.189,2.189,0,0,1-.231.011m0-8.2a.669.669,0,0,0-.08,0,.646.646,0,0,0-.561.722.708.708,0,0,1,.007.1v4.909a.875.875,0,0,1-.007.1.647.647,0,0,0,.722.721.847.847,0,0,1,.1-.007H15.1a.875.875,0,0,1,.1.007.579.579,0,0,0,.16,0,.644.644,0,0,0,.561-.722.872.872,0,0,1-.007-.1V9.452a.886.886,0,0,1,.007-.1.646.646,0,0,0-.722-.721.727.727,0,0,1-.1.007H13.466a.886.886,0,0,1-.1-.007.636.636,0,0,0-.079,0" transform="translate(-2 -1.27)" fill="#111"/></g></svg>