<svg xmlns="http://www.w3.org/2000/svg" xmlns:xlink="http://www.w3.org/1999/xlink" width="16" height="16" viewBox="0 0 16 16">
  <defs>
    <clipPath id="clip-path">
      <rect id="사각형_517" data-name="사각형 517" width="16" height="16" transform="translate(0 0)" fill="#d2d4df"/>
    </clipPath>
  </defs>
  <g id="그룹_511" data-name="그룹 511" transform="translate(0 0)">
    <g id="그룹_510" data-name="그룹 510" transform="translate(0 0)" clip-path="url(#clip-path)">
      <path id="패스_367" data-name="패스 367" d="M16,9.524V6.475l-1.918-.227a6.311,6.311,0,0,0-.54-1.312l1.193-1.514L12.579,1.265,11.064,2.458a6.338,6.338,0,0,0-1.312-.54L9.524,0H6.476L6.248,1.918a6.335,6.335,0,0,0-1.311.54L3.421,1.265,1.265,3.421,2.458,4.936a6.331,6.331,0,0,0-.541,1.312L0,6.475V9.524l1.918.228a6.32,6.32,0,0,0,.541,1.312L1.265,12.579l2.156,2.156,1.515-1.193a6.284,6.284,0,0,0,1.311.54L6.476,16H9.524l.228-1.918a6.247,6.247,0,0,0,1.311-.54l1.516,1.193,2.156-2.156-1.193-1.516a6.267,6.267,0,0,0,.54-1.311Zm-8,.642A2.167,2.167,0,1,1,10.167,8,2.167,2.167,0,0,1,8,10.167" transform="translate(0 0)" fill="#d2d4df"/>
    </g>
  </g>
</svg>
