<svg id="그룹_473" data-name="그룹 473" xmlns="http://www.w3.org/2000/svg" xmlns:xlink="http://www.w3.org/1999/xlink" width="41.17" height="41.157" viewBox="0 0 41.17 41.157">
  <defs>
    <clipPath id="clip-path">
      <rect id="사각형_501" data-name="사각형 501" width="41.17" height="41.157" transform="translate(0 0)" fill="#444"/>
    </clipPath>
  </defs>
  <g id="그룹_472" data-name="그룹 472" clip-path="url(#clip-path)">
    <path id="패스_359" data-name="패스 359" d="M20.582,41.157a20.46,20.46,0,0,1-7.049-1.265l-1.14-.417,1.552-4.654,2.371.791-.771,2.313a17.819,17.819,0,0,0,5.037.732c.172,0,.348,0,.531-.011l.262-3.923,6.5-1.308,1.477,2.954a17.97,17.97,0,0,0,4.416-3.427l-2.52-2.88,3.672-5.517,3.033,1.008a17.9,17.9,0,0,0,.717-4.982c0-.172,0-.348-.012-.533l-3.721-.252-1.306-6.5,2.8-1.4a18.29,18.29,0,0,0-3.379-4.4L30.279,9.913,24.762,6.245l.994-2.988a17.514,17.514,0,0,0-5.5-.766L20,6.227l-6.5,1.3-1.447-2.9A18.276,18.276,0,0,0,7.605,8l2.522,2.889L6.459,16.4l-3.174-1.06A17.887,17.887,0,0,0,2.5,20.571c0,.109,0,.217,0,.326l3.939.263,1.3,6.5L3.582,29.743,2.463,27.507,4.92,26.278l-.551-2.751L.162,23.246.078,22.169C.035,21.637,0,21.11,0,20.571a20.485,20.485,0,0,1,1.334-7.248L1.758,12.2l3.678,1.229,1.552-2.334L4.275,7.985l.707-.821A20.773,20.773,0,0,1,12.1,1.825l1.1-.5L14.887,4.7l2.75-.551.265-4L18.977.065a20.489,20.489,0,0,1,8.8,1.235l1.127.423-1.164,3.5,2.336,1.552,2.979-2.6.82.693a20.7,20.7,0,0,1,5.375,7.059l.512,1.1-3.3,1.648.553,2.751,3.974.267.092,1.067c.043.486.092,1.131.092,1.816a20.558,20.558,0,0,1-1.242,6.99l-.414,1.147L35.943,27.52l-1.554,2.335,2.687,3.072-.683.82a20.483,20.483,0,0,1-7.065,5.439l-1.1.52-1.731-3.463-2.752.555-.279,4.166-1.059.1c-.691.065-1.269.1-1.822.1" fill="#444"/>
    <path id="패스_360" data-name="패스 360" d="M20.584,30.065a9.494,9.494,0,1,1,9.494-9.494,9.505,9.505,0,0,1-9.494,9.494m0-16.488a6.994,6.994,0,1,0,6.994,6.994,7,7,0,0,0-6.994-6.994" fill="#444"/>
    <rect id="사각형_499" data-name="사각형 499" width="13.605" height="2.5" transform="translate(4.405 35.247) rotate(-44.109)" fill="#444"/>
    <rect id="사각형_500" data-name="사각형 500" width="8.591" height="2.5" transform="translate(19.247 20.203) rotate(-45.632)" fill="#444"/>
  </g>
</svg>
