<svg xmlns="http://www.w3.org/2000/svg" xmlns:xlink="http://www.w3.org/1999/xlink" width="37.04" height="42.475" viewBox="0 0 37.04 42.475">
  <defs>
    <clipPath id="clip-path">
      <rect id="사각형_503" data-name="사각형 503" width="37.04" height="42.475" transform="translate(0 0)" fill="#444"/>
    </clipPath>
  </defs>
  <g id="그룹_476" data-name="그룹 476" transform="translate(0 0)">
    <rect id="사각형_502" data-name="사각형 502" width="20.239" height="2.5" transform="translate(7.107 32)" fill="#444"/>
    <path id="패스_361" data-name="패스 361" d="M14.941,30.843,8.5,24.793,25.962,6.215,32.4,12.266Zm-2.9-6.159,2.8,2.625L28.866,12.375l-2.8-2.626Z" fill="#444"/>
    <g id="그룹_475" data-name="그룹 475">
      <g id="그룹_474" data-name="그룹 474" clip-path="url(#clip-path)">
        <path id="패스_362" data-name="패스 362" d="M8.178,33.527a1.316,1.316,0,0,1-.886-.342,1.334,1.334,0,0,1-.4-1.294l1.489-6.25a1.322,1.322,0,1,1,2.571.618l-.926,3.884,3.727-1.308a1.326,1.326,0,0,1,.874,2.5L8.614,33.453a1.32,1.32,0,0,1-.437.074" transform="translate(-0.137 -0.246)" fill="#444"/>
        <path id="패스_363" data-name="패스 363" d="M27.831,42.475H0V0H37.04V42.125h-2.5V2.5H2.5V39.975H27.831Z" fill="#444"/>
      </g>
    </g>
  </g>
</svg>
