<svg xmlns="http://www.w3.org/2000/svg" width="18" height="20.25" viewBox="0 0 18 20.25">
  <path id="패스_257" data-name="패스 257" d="M14.625,13.5a3.368,3.368,0,0,0-2.15.773L6.682,10.8a3.386,3.386,0,0,0,0-1.346l5.792-3.476a3.373,3.373,0,1,0-1.157-1.929L5.525,7.523a3.375,3.375,0,1,0,0,5.2L11.317,16.2a3.375,3.375,0,1,0,3.308-2.7m0-11.812a1.688,1.688,0,1,1-1.687,1.688,1.688,1.688,0,0,1,1.688-1.687M3.375,11.813a1.688,1.688,0,1,1,1.688-1.687,1.688,1.688,0,0,1-1.687,1.688m11.25,6.75a1.688,1.688,0,1,1,1.688-1.687,1.688,1.688,0,0,1-1.687,1.688" fill="#3ccbdb"/>
</svg>
