<svg id="구성_요소_4_1" data-name="구성 요소 4 – 1" xmlns="http://www.w3.org/2000/svg" xmlns:xlink="http://www.w3.org/1999/xlink" width="73" height="73" viewBox="0 0 73 73">
  <defs>
    <clipPath id="clip-path">
      <rect id="사각형_305" data-name="사각형 305" width="47.25" height="37.8" fill="none"/>
    </clipPath>
  </defs>
  <rect id="사각형_280" data-name="사각형 280" width="73" height="73" rx="10" fill="#f5f5f5"/>
  <g id="그룹_245" data-name="그룹 245" transform="translate(-864.125 -683.5)" opacity="0.1">
    <g id="그룹_244" data-name="그룹 244" transform="translate(877 701)">
      <g id="그룹_243" data-name="그룹 243" transform="translate(0 0)" clip-path="url(#clip-path)">
        <path id="패스_237" data-name="패스 237" d="M43.706,0H3.544A3.549,3.549,0,0,0,0,3.544V34.256A3.548,3.548,0,0,0,3.544,37.8H43.706a3.548,3.548,0,0,0,3.544-3.544V3.544A3.549,3.549,0,0,0,43.706,0M21.262,25.987l-3.89-3.89a1.185,1.185,0,0,0-1.669,0L4.725,33.075V4.725h37.8Z" transform="translate(0 0)" fill="#050505"/>
        <path id="패스_238" data-name="패스 238" d="M8.344,11.887A3.544,3.544,0,1,0,4.8,8.344a3.544,3.544,0,0,0,3.544,3.544" transform="translate(4.65 4.65)" fill="#050505"/>
      </g>
    </g>
  </g>
  <rect id="사각형_304" data-name="사각형 304" width="30" height="19" rx="5" transform="translate(38 49)" fill="#222" opacity="0.7"/>
  <text id="추가" transform="translate(42 63)" fill="#fff" font-size="12" font-family="NotoSansCJKkr-Regular, Noto Sans CJK KR" letter-spacing="-0.04em"><tspan x="0" y="0">추가</tspan></text>
</svg>
