<svg xmlns="http://www.w3.org/2000/svg" xmlns:xlink="http://www.w3.org/1999/xlink" width="16.924" height="21.447" viewBox="0 0 16.924 21.447"><defs><clipPath id="a"><rect width="16.924" height="21.447" fill="#979797"/></clipPath></defs><g clip-path="url(#a)"><path d="M12.759,16.334a8.908,8.908,0,0,1-2.025.8,5.911,5.911,0,0,1,3.513,4.317h1.7a7.587,7.587,0,0,0-3.191-5.113M.973,21.447h1.7A5.918,5.918,0,0,1,6.19,17.13a8.924,8.924,0,0,1-2.026-.8A7.591,7.591,0,0,0,.973,21.447M16.924,8.462a8.462,8.462,0,1,0-8.462,8.462,8.472,8.472,0,0,0,8.462-8.462M8.462,15.353a6.89,6.89,0,1,1,6.89-6.891,6.9,6.9,0,0,1-6.89,6.891" transform="translate(0 0)" fill="#979797"/><path d="M16.937,10.122a.9.9,0,1,0,.9.9.9.9,0,0,0-.9-.9" transform="translate(-5.95 -3.754)" fill="#979797"/><path d="M10.034,11.018a.9.9,0,1,0-.9.9.9.9,0,0,0,.9-.9" transform="translate(-3.057 -3.754)" fill="#979797"/><path d="M14.068,14.69a.288.288,0,0,0-.286.289,1.282,1.282,0,0,1-1.356,1.186,1.281,1.281,0,0,1-1.354-1.186.288.288,0,1,0-.576,0,1.855,1.855,0,0,0,1.931,1.764,1.855,1.855,0,0,0,1.931-1.764.288.288,0,0,0-.289-.289" transform="translate(-3.893 -5.449)" fill="#979797"/></g></svg>