<svg xmlns="http://www.w3.org/2000/svg" xmlns:xlink="http://www.w3.org/1999/xlink" width="20.285" height="20" viewBox="0 0 20.285 20"><defs><clipPath id="a"><rect width="20.285" height="20" fill="none" stroke="#3ccbdb" stroke-width="1.5"/></clipPath></defs><g transform="translate(0 0)"><g transform="translate(0 0)" clip-path="url(#a)"><path d="M16.337,7.389H9.948V4.195a3.195,3.195,0,1,1,6.389,0Z" transform="translate(-3 -0.302)" fill="none" stroke="#3ccbdb" stroke-width="1.5"/><path d="M16.337,7.389H9.948V4.195a3.195,3.195,0,1,1,6.389,0Z" transform="translate(-3 -0.302)" fill="none" stroke="#3ccbdb" stroke-linecap="round" stroke-linejoin="round" stroke-width="1.5"/><path d="M16.8,22.362H4.091a3.09,3.09,0,0,1-3.033-3.685l1.673-8.529H18.156l1.673,8.529A3.09,3.09,0,0,1,16.8,22.362" transform="translate(-0.302 -3.06)" fill="none" stroke="#3ccbdb" stroke-width="1.5"/><path d="M16.8,22.362H4.091a3.09,3.09,0,0,1-3.033-3.685l1.673-8.529H18.156l1.673,8.529A3.09,3.09,0,0,1,16.8,22.362Z" transform="translate(-0.302 -3.06)" fill="none" stroke="#3ccbdb" stroke-linecap="round" stroke-linejoin="round" stroke-width="1.5"/><path d="M15.516,16.255H6.867a2.223,2.223,0,0,1-2.142-1.627l-1.246-4.48H18.9l-1.246,4.48a2.223,2.223,0,0,1-2.141,1.627" transform="translate(-1.049 -3.06)" fill="none" stroke="#3ccbdb" stroke-width="1.5"/><path d="M15.516,16.255H6.867a2.223,2.223,0,0,1-2.142-1.627l-1.246-4.48H18.9l-1.246,4.48A2.223,2.223,0,0,1,15.516,16.255Z" transform="translate(-1.049 -3.06)" fill="none" stroke="#3ccbdb" stroke-linecap="round" stroke-linejoin="round" stroke-width="1.5"/></g></g></svg>