<svg xmlns="http://www.w3.org/2000/svg" xmlns:xlink="http://www.w3.org/1999/xlink" width="16.358" height="20" viewBox="0 0 16.358 20"><defs><clipPath id="a"><rect width="16.358" height="20" fill="none" stroke="#9499b4" stroke-width="0.9"/></clipPath></defs><g transform="translate(0 0)" clip-path="url(#a)"><path d="M12.945,23.48a2.2,2.2,0,1,1-2.2-2.2,2.2,2.2,0,0,1,2.2,2.2" transform="translate(-2.562 -6.384)" fill="#fff" stroke="#9499b4" stroke-width="0.9"/><path d="M12.945,23.48a2.2,2.2,0,1,1-2.2-2.2A2.2,2.2,0,0,1,12.945,23.48Z" transform="translate(-2.562 -6.384)" fill="none" stroke="#9499b4" stroke-linecap="round" stroke-linejoin="round" stroke-width="0.9"/><path d="M9.28,3.74A5.61,5.61,0,0,0,3.67,9.35v5.394H14.89V9.35A5.61,5.61,0,0,0,9.28,3.74" transform="translate(-1.101 -1.122)" fill="#fff" stroke="#9499b4" stroke-width="0.9"/><path d="M9.28,3.74A5.61,5.61,0,0,0,3.67,9.35v5.394H14.89V9.35A5.61,5.61,0,0,0,9.28,3.74Z" transform="translate(-1.101 -1.122)" fill="none" stroke="#9499b4" stroke-linecap="round" stroke-linejoin="round" stroke-width="0.9"/><path d="M15.958,22.936H1l1.869-3.474h11.22Z" transform="translate(-0.3 -5.84)" fill="#fff" stroke="#9499b4" stroke-width="0.9"/><path d="M15.958,22.936H1l1.869-3.474h11.22Z" transform="translate(-0.3 -5.84)" fill="none" stroke="#9499b4" stroke-linecap="round" stroke-linejoin="round" stroke-width="0.9"/><line y1="1.918" transform="translate(8.179 0.7)" fill="#fff" stroke="#9499b4" stroke-width="0.9"/><line y1="1.918" transform="translate(8.179 0.7)" fill="none" stroke="#9499b4" stroke-linecap="round" stroke-linejoin="round" stroke-width="0.9"/></g></svg>