<svg xmlns="http://www.w3.org/2000/svg" width="19.603" height="18.115" viewBox="0 0 19.603 18.115"><g transform="translate(0.75 0.75)"><path d="M18.363,4.476H15.01a.769.769,0,0,0-.1-.347l-.992-1.786A1.813,1.813,0,0,0,12.48,1.5H8.623a1.813,1.813,0,0,0-1.433.843L6.2,4.129a.768.768,0,0,0-.1.347H2.74A1.239,1.239,0,0,0,1.5,5.716v11.16a1.24,1.24,0,0,0,1.24,1.24H18.363a1.24,1.24,0,0,0,1.24-1.24V5.716A1.24,1.24,0,0,0,18.363,4.476Z" transform="translate(-1.5 -1.5)" fill="none" stroke="#3ccbdb" stroke-linecap="round" stroke-linejoin="round" stroke-width="1.5"/><path d="M23.852,21.289a3.968,3.968,0,1,1-3.968-3.968A3.968,3.968,0,0,1,23.852,21.289Z" transform="translate(-10.832 -11.741)" fill="none" stroke="#3ccbdb" stroke-linecap="round" stroke-linejoin="round" stroke-width="1.5"/></g></svg>