<svg xmlns="http://www.w3.org/2000/svg" width="20.57" height="20.731" viewBox="0 0 20.57 20.731">
  <g id="그룹_491" data-name="그룹 491" transform="translate(-0.15 -0.15)">
    <g id="그룹_409" data-name="그룹 409" transform="translate(0.75 0.75)">
      <path id="패스_319" data-name="패스 319" d="M7.045,17.214H6.561C2.687,17.214.75,16.246.75,11.4V6.561Q.75.75,6.561.75h7.748q5.811,0,5.811,5.811V11.4q0,5.811-5.811,5.811h-.484a.982.982,0,0,0-.775.387L11.6,19.538a1.376,1.376,0,0,1-2.324,0L7.82,17.6A1.1,1.1,0,0,0,7.045,17.214Z" transform="translate(-0.75 -0.75)" fill="none" stroke="#16b9cb" stroke-linecap="round" stroke-linejoin="round" stroke-width="1.2"/>
      <path id="패스_320" data-name="패스 320" d="M2.558,11.138a.522.522,0,0,1-.407-.185.643.643,0,0,1-.12-.533l.515-3A.638.638,0,0,0,2.4,6.964L.218,4.84a.6.6,0,0,1-.193-.624.6.6,0,0,1,.523-.392l3.012-.438A.637.637,0,0,0,3.948,3.1L5.294.376a.567.567,0,0,1,1.068,0L7.709,3.1a.638.638,0,0,0,.388.282l3.011.438a.6.6,0,0,1,.523.392.6.6,0,0,1-.193.624L9.26,6.964a.638.638,0,0,0-.148.457l.514,3a.643.643,0,0,1-.12.533.587.587,0,0,1-.744.094L6.068,9.631a.637.637,0,0,0-.48,0L2.895,11.047a.723.723,0,0,1-.337.09M5.828,8.851a1.272,1.272,0,0,1,.581.131l2.446,1.286L8.389,7.545a1.359,1.359,0,0,1,.359-1.106L10.727,4.51l-2.735-.4a1.358,1.358,0,0,1-.94-.683L5.828.95,4.605,3.429a1.358,1.358,0,0,1-.94.683l-2.736.4L2.909,6.439a1.358,1.358,0,0,1,.359,1.105L2.8,10.269,5.247,8.983a1.272,1.272,0,0,1,.581-.131" transform="translate(3.856 2.345)" fill="#9499b4" stroke="#16b9cb" stroke-width="0.4"/>
    </g>
  </g>
</svg>
