<svg xmlns="http://www.w3.org/2000/svg" width="25.484" height="20.628" viewBox="0 0 25.484 20.628"><g transform="translate(0.057 0.057)"><g transform="translate(0 0)"><path d="M27.666,44.452a.595.595,0,0,1,0-1.189h2.3a.595.595,0,0,1,0,1.189Z" transform="translate(-15.319 -24.481)" fill="#3a3a3a" stroke="#9499b4" stroke-width="1.2"/><path d="M46,14.07a4.857,4.857,0,0,1,0,9.713Z" transform="translate(-26.03 -7.962)" fill="none" stroke="#9499b4" stroke-linecap="round" stroke-linejoin="round" stroke-width="1.2"/><path d="M6.107,14.07a4.857,4.857,0,1,0,0,9.713Z" transform="translate(-0.707 -7.962)" fill="none" stroke="#9499b4" stroke-linecap="round" stroke-linejoin="round" stroke-width="1.2"/><path d="M12.445,6.826a7.517,7.517,0,0,1,14.548.088" transform="translate(-7.042 -0.707)" fill="none" stroke="#9499b4" stroke-linecap="round" stroke-linejoin="round" stroke-width="1.2"/><path d="M39.227,35.935a3.859,3.859,0,0,1-5.205,3.614" transform="translate(-19.252 -20.334)" fill="none" stroke="#9499b4" stroke-linecap="round" stroke-linejoin="round" stroke-width="1.2"/></g></g></svg>