<svg xmlns="http://www.w3.org/2000/svg" width="26.622" height="20.092" viewBox="0 0 26.622 20.092">
  <g id="그룹_486" data-name="그룹 486" transform="translate(0.046 0.046)">
    <g id="그룹_460" data-name="그룹 460" transform="translate(0 0)">
      <path id="패스_335" data-name="패스 335" d="M20.142,10.7A9.446,9.446,0,1,1,10.7,1.25,9.446,9.446,0,0,1,20.142,10.7Z" transform="translate(-0.696 -0.696)" fill="none" stroke="#9499b4" stroke-linecap="round" stroke-linejoin="round" stroke-width="1.2"/>
      <path id="패스_336" data-name="패스 336" d="M21.575,25.832a3.4,3.4,0,0,1-6.067.055" transform="translate(-8.632 -14.378)" fill="none" stroke="#9499b4" stroke-linecap="round" stroke-linejoin="round" stroke-width="1.2"/>
      <path id="패스_337" data-name="패스 337" d="M29.186,17.438a1.03,1.03,0,1,1-1.03-1.029,1.03,1.03,0,0,1,1.03,1.029" transform="translate(-15.098 -9.133)" fill="#9499b4"/>
      <path id="패스_338" data-name="패스 338" d="M15.3,17.438a1.03,1.03,0,1,1-1.03-1.029,1.03,1.03,0,0,1,1.03,1.029" transform="translate(-7.372 -9.133)" fill="#9499b4"/>
      <path id="패스_339" data-name="패스 339" d="M33.357,8.41C30.273,5.37,32.205,1.7,34.344,1.7c2.9,0,3.417,3.169,3.417,3.169S38.076,1.7,40.981,1.7c2.17,0,4.226,3.784.886,6.861-1.056.973-4.073,3.437-4.073,3.437S34.408,9.445,33.357,8.41" transform="translate(-17.672 -0.944)" fill="#fff" stroke="#9499b4" stroke-linecap="round" stroke-width="1.2"/>
      <path id="패스_340" data-name="패스 340" d="M33.357,8.41C30.273,5.37,32.205,1.7,34.344,1.7c2.9,0,3.417,3.169,3.417,3.169S38.076,1.7,40.981,1.7c2.17,0,4.226,3.784.886,6.861-1.056.973-4.073,3.437-4.073,3.437S34.408,9.445,33.357,8.41Z" transform="translate(-17.672 -0.944)" fill="none" stroke="#9499b4" stroke-linecap="round" stroke-linejoin="round" stroke-width="1.2"/>
    </g>
  </g>
</svg>
