<svg xmlns="http://www.w3.org/2000/svg" width="16.255" height="16.389" viewBox="0 0 16.255 16.389"><g transform="translate(-0.1 -0.1)"><path d="M5.61,13.462H5.237C2.246,13.462.75,12.714.75,8.975V5.237Q.75.75,5.237.75h5.982q4.487,0,4.487,4.487V8.975q0,4.487-4.487,4.487h-.374a.758.758,0,0,0-.6.3l-1.122,1.5a1.063,1.063,0,0,1-1.795,0l-1.122-1.5A.845.845,0,0,0,5.61,13.462Z" fill="none" stroke="#111" stroke-linecap="round" stroke-linejoin="round" stroke-width="1.3"/><path d="M1.975,8.6a.4.4,0,0,1-.314-.143.5.5,0,0,1-.093-.412l.4-2.316a.492.492,0,0,0-.115-.352L.168,3.737A.466.466,0,0,1,.02,3.255a.466.466,0,0,1,.4-.3l2.325-.338a.492.492,0,0,0,.3-.218L4.088.29a.438.438,0,0,1,.825,0L5.952,2.4a.492.492,0,0,0,.3.218l2.325.338a.466.466,0,0,1,.4.3.466.466,0,0,1-.149.482L7.149,5.377a.493.493,0,0,0-.115.352l.4,2.316a.5.5,0,0,1-.093.412.453.453,0,0,1-.574.073L4.685,7.436a.492.492,0,0,0-.371,0L2.235,8.53a.559.559,0,0,1-.26.07M4.5,6.834a.982.982,0,0,1,.449.1l1.889.993-.361-2.1a1.049,1.049,0,0,1,.277-.854l1.528-1.49L6.17,3.175a1.048,1.048,0,0,1-.726-.527L4.5.734,3.556,2.647a1.048,1.048,0,0,1-.726.527L.717,3.482l1.528,1.49a1.048,1.048,0,0,1,.277.853l-.361,2.1,1.889-.993a.982.982,0,0,1,.449-.1" transform="translate(3.728 2.561)" fill="#16b9cb" stroke="#16b9cb" stroke-width="0.5"/></g></svg>