<svg xmlns="http://www.w3.org/2000/svg" width="18.9" height="15" viewBox="0 0 18.9 15"><g transform="translate(0 0)"><g transform="translate(0 0)"><path d="M34.243,17.223a.573.573,0,0,1-.573-.573V10.22a.573.573,0,0,1,.573-.573,3.788,3.788,0,0,1,0,7.576m.573-6.367v5.159a2.642,2.642,0,0,0,0-5.159" transform="translate(-19.13 -5.156)" fill="#222"/><path d="M3.788,17.222a3.788,3.788,0,1,1,0-7.576.573.573,0,0,1,.573.573v6.43a.573.573,0,0,1-.573.573m-.573-6.367a2.642,2.642,0,0,0,0,5.159Z" transform="translate(0 -5.155)" fill="#222"/><path d="M20.216,4.9a.653.653,0,0,1-.641-.432,5,5,0,0,0-4.933-3.318A5.026,5.026,0,0,0,9.726,4.412a.679.679,0,0,1-.811.406.57.57,0,0,1-.47-.7A6.335,6.335,0,0,1,14.642,0a6.308,6.308,0,0,1,6.217,4.182.572.572,0,0,1-.479.7.765.765,0,0,1-.163.018" transform="translate(-5.206)" fill="#222"/><path d="M26.124,29.8a3.107,3.107,0,0,1-1.094-.2.573.573,0,1,1,.4-1.073A1.981,1.981,0,0,0,28.1,26.67a.573.573,0,1,1,1.146,0A3.129,3.129,0,0,1,26.124,29.8" transform="translate(-13.987 -14.796)" fill="#222"/><path d="M20.5,30.3a.8.8,0,1,1-.8-.8.8.8,0,0,1,.8.8" transform="translate(-10.902 -16.896)" fill="#3ccbdb"/></g></g></svg>