<svg xmlns="http://www.w3.org/2000/svg" width="19.255" height="22.766" viewBox="0 0 19.255 22.766"><g transform="translate(-0.117 -0.117)"><path d="M22.2,10.745l-.909.146-.908-.146" transform="translate(-11.549 -6.087)" fill="none" stroke="#9499b4" stroke-linejoin="round" stroke-width="1.5"/><g transform="translate(0 0.001)"><g transform="translate(0 0)"><line x2="1.816" transform="translate(8.836 22.133)" fill="none" stroke="#9499b4" stroke-linejoin="round" stroke-width="1.5"/><path d="M9.969,10.775,8.4,12.343l-3.36-3.36L2,9.573V27.222h7.97" transform="translate(-1.133 -5.089)" fill="none" stroke="#9499b4" stroke-linejoin="round" stroke-width="1.5"/><path d="M24.575,27.223h7.969V9.573L29.5,8.984l-3.359,3.36-1.567-1.568" transform="translate(-13.923 -5.09)" fill="none" stroke="#9499b4" stroke-linejoin="round" stroke-width="1.5"/><path d="M10.822,2,8.982,5.01,9,5.027l3.36,3.36,1.567-1.568.858-.857Z" transform="translate(-5.088 -1.133)" fill="none" stroke="#9499b4" stroke-linejoin="round" stroke-width="1.5"/><path d="M26.556,2,22.6,5.961l.858.857,1.567,1.568,3.359-3.36L28.4,5.01Z" transform="translate(-12.801 -1.133)" fill="none" stroke="#9499b4" stroke-linejoin="round" stroke-width="1.5"/><line x2="8.022" transform="translate(5.733 0.867)" fill="none" stroke="#9499b4" stroke-linejoin="round" stroke-width="1.5"/></g></g><line y2="10.403" transform="translate(9.744 7.732)" fill="none" stroke="#9499b4" stroke-linejoin="round" stroke-width="1.5"/></g></svg>