<svg xmlns="http://www.w3.org/2000/svg" width="21.019" height="18.961" viewBox="0 0 21.019 18.961"><g transform="translate(0.73 0.73)"><path d="M97.737,207.447c0,2.657-2.9,3.482-6.469,3.482S84.8,210.1,84.8,207.447s2.9-6.14,6.469-6.14S97.737,204.79,97.737,207.447Z" transform="translate(-81.49 -193.448)" fill="none" stroke="#3ccbdb" stroke-miterlimit="10" stroke-width="1.5"/><path d="M5.009,132.836a2.254,2.254,0,1,1-2.254-2.254A2.254,2.254,0,0,1,5.009,132.836Z" transform="translate(-0.48 -125.484)" fill="none" stroke="#3ccbdb" stroke-miterlimit="10" stroke-width="1.5"/><ellipse cx="2.464" cy="2.923" rx="2.464" ry="2.923" transform="translate(4.094 0.02)" fill="none" stroke="#3ccbdb" stroke-miterlimit="10" stroke-width="1.5"/><path d="M385.009,132.836a2.254,2.254,0,1,0,2.254-2.254A2.254,2.254,0,0,0,385.009,132.836Z" transform="translate(-369.979 -125.484)" fill="none" stroke="#3ccbdb" stroke-miterlimit="10" stroke-width="1.5"/><ellipse cx="2.464" cy="2.923" rx="2.464" ry="2.923" transform="translate(10.537 0.02)" fill="none" stroke="#3ccbdb" stroke-miterlimit="10" stroke-width="1.5"/></g></svg>