<svg xmlns="http://www.w3.org/2000/svg" xmlns:xlink="http://www.w3.org/1999/xlink" width="34" height="34" viewBox="0 0 34 34">
  <defs>
    <clipPath id="clip-path">
      <rect id="사각형_1" data-name="사각형 1" width="29.095" height="9.582" fill="#fff"/>
    </clipPath>
  </defs>
  <g id="그룹_414" data-name="그룹 414" transform="translate(-581 -1019.585)">
    <circle id="타원_56" data-name="타원 56" cx="17" cy="17" r="17" transform="translate(581 1019.585)" fill="#3ccbdb"/>
    <g id="그룹_287" data-name="그룹 287" transform="translate(583 1031.585)">
      <path id="패스_1" data-name="패스 1" d="M696.006,9.062v9.495h1.351V11.99h1.411V10.639h-1.411V9.062Z" transform="translate(-689.256 -8.974)" fill="#fff"/>
      <path id="패스_2" data-name="패스 2" d="M1735.062,0V9.582h1.351V2.928h1.411V1.577h-1.411V0Z" transform="translate(-1718.235 0)" fill="#fff"/>
      <g id="그룹_2" data-name="그룹 2" transform="translate(0 0)">
        <g id="그룹_1" data-name="그룹 1" clip-path="url(#clip-path)">
          <path id="패스_3" data-name="패스 3" d="M961.863,1.889V0h-1.351V1.889h0a4.463,4.463,0,0,1-.675,2.833.014.014,0,0,1-.021,0,4.463,4.463,0,0,1-.675-2.833V0h-1.351V1.889h0a3.948,3.948,0,0,1-1.479,3.419l.532,1.175a4.642,4.642,0,0,0,1.62-1.765,0,0,0,0,1,.008,0,5.623,5.623,0,0,0,1.349,1.765h.017a5.621,5.621,0,0,0,1.35-1.765,0,0,0,0,1,.008,0,4.974,4.974,0,0,0,1.485,1.765l.667-1.175a3.948,3.948,0,0,1-1.479-3.419" transform="translate(-947.033)" fill="#fff"/>
          <path id="패스_4" data-name="패스 4" d="M3.22,2.939H2.633A2.779,2.779,0,0,0,0,5.842v.715a2.779,2.779,0,0,0,2.633,2.9H3.22a2.779,2.779,0,0,0,2.633-2.9V5.842a2.779,2.779,0,0,0-2.633-2.9M4.5,6.558A1.433,1.433,0,0,1,3.22,8.11H2.633A1.433,1.433,0,0,1,1.351,6.558V5.842A1.433,1.433,0,0,1,2.633,4.29H3.22A1.433,1.433,0,0,1,4.5,5.842Z" transform="translate(0 -2.91)" fill="#fff"/>
          <path id="패스_5" data-name="패스 5" d="M1968.768,469.933a14.5,14.5,0,0,1-8.438,0,.6.6,0,0,0-.826.562.611.611,0,0,0,.295.521,5.479,5.479,0,0,0,2.268.67v2.893s-.017.337.392.337c.314,0,1.073-.233,1.073-.672v-2.459c.318.01.655.015,1.018.015s.7-.005,1.018-.015v2.794s-.017.337.392.337c.313,0,1.073-.233,1.073-.672v-2.557a5.479,5.479,0,0,0,2.267-.67.611.611,0,0,0,.3-.521.6.6,0,0,0-.826-.562" transform="translate(-1940.5 -465.333)" fill="#fff"/>
          <path id="패스_6" data-name="패스 6" d="M2154.523,0V1.264h-2.6v1.15h2.6v.672a.333.333,0,0,1-.333.333h-2.807a.333.333,0,0,1-.333-.333V0h-1.465V3.358A1.212,1.212,0,0,0,2150.8,4.57h3.979a1.212,1.212,0,0,0,1.212-1.212V0Z" transform="translate(-2128.737)" fill="#fff"/>
        </g>
      </g>
    </g>
  </g>
</svg>
